<?xml version="1.0" encoding="UTF-8"?>
<svg version="1.1" xmlns="http://www.w3.org/2000/svg" width="1003" height="165">
<path d="M0 0 C330.99 0 661.98 0 1003 0 C1003 54.45 1003 108.9 1003 165 C672.01 165 341.02 165 0 165 C0 110.55 0 56.1 0 0 Z " fill="#FDFEFF" transform="translate(0,0)"/>
<path d="M0 0 C1.17452225 -0.00401825 1.17452225 -0.00401825 2.37277222 -0.00811768 C14.55324411 0.00093762 25.07668372 0.96949954 36.125 6.5 C37.09308594 6.97953125 38.06117188 7.4590625 39.05859375 7.953125 C45.25683291 11.38715705 50.77442243 15.88105001 56.125 20.5 C56.81464844 21.09296875 57.50429687 21.6859375 58.21484375 22.296875 C72.30664796 35.35621038 81.38881582 55.34124557 82.20751953 74.42333984 C83.06836959 98.27267637 76.42257889 118.41276893 60.875 136.6875 C52.67724589 145.44770722 43.07314179 151.71384711 32.125 156.5 C31.24328125 156.89058594 30.3615625 157.28117188 29.453125 157.68359375 C11.48364567 164.94049886 -10.97183588 164.90423699 -28.93505859 157.67041016 C-51.12314039 148.04496673 -67.46919032 131.96737304 -76.43359375 109.453125 C-83.80355002 89.78090129 -83.10004241 66.51013128 -74.6875 47.296875 C-64.87146793 26.12970453 -48.31211849 12.20920961 -27.09326172 3.25854492 C-18.11323462 0.18778285 -9.39294223 0.01887043 0 0 Z " fill="#147EFF" transform="translate(90.875,-0.5)"/>
<path d="M0 0 C40.8471867 0 40.8471867 0 49.43359375 8.08984375 C57.98025919 18.51208665 58.83556019 29.08285845 58 42 C56.77424994 50.04008937 53.11585451 57.55536907 46.8203125 62.82421875 C32.06000068 73.0868598 20.38160288 69 0 69 C0 46.23 0 23.46 0 0 Z " fill="#167FFF" transform="translate(807,48)"/>
<path d="M0 0 C8.3840625 -0.12375 8.3840625 -0.12375 16.9375 -0.25 C18.68281006 -0.28641602 20.42812012 -0.32283203 22.22631836 -0.36035156 C39.23292515 -0.56967396 39.23292515 -0.56967396 45.85717773 5.78027344 C51.64434202 12.07793838 52.45878084 16.99913356 52.30859375 25.515625 C51.71834003 32.18026193 49.35444477 36.02968076 44.375 40.375 C43.25211552 41.25271319 42.12738813 42.12807913 41 43 C40.34 43.66 39.68 44.32 39 45 C39.45439453 45.65597168 39.90878906 46.31194336 40.37695312 46.98779297 C42.42278225 49.94690119 44.4614663 52.91086181 46.5 55.875 C47.57314453 57.42380859 47.57314453 57.42380859 48.66796875 59.00390625 C49.34472656 59.99003906 50.02148438 60.97617188 50.71875 61.9921875 C51.34716797 62.90339355 51.97558594 63.81459961 52.62304688 64.75341797 C54 67 54 67 54 69 C39.96592183 70.51628696 39.96592183 70.51628696 35.66015625 67.1953125 C33.8647844 64.55083538 32.44399476 61.8510587 31 59 C29.54177497 56.81918404 28.06239826 54.652367 26.5625 52.5 C23 47.25426945 23 47.25426945 23 45 C20.03 45 17.06 45 14 45 C14 52.92 14 60.84 14 69 C9.38 69 4.76 69 0 69 C0 46.23 0 23.46 0 0 Z " fill="#147EFF" transform="translate(337,48)"/>
<path d="M0 0 C34 0 34 0 44 4 C49.41920427 9.41920427 52.28162426 13.37195041 52.375 21.1875 C52.24277829 28.12525083 51.18299358 33.71067033 46.24609375 38.8125 C44.54539423 40.28951671 42.79997298 41.64780355 41 43 C40.34 43.66 39.68 44.32 39 45 C39.45439453 45.65597168 39.90878906 46.31194336 40.37695312 46.98779297 C42.42278225 49.94690119 44.4614663 52.91086181 46.5 55.875 C47.57314453 57.42380859 47.57314453 57.42380859 48.66796875 59.00390625 C49.34472656 59.99003906 50.02148438 60.97617188 50.71875 61.9921875 C51.34716797 62.90339355 51.97558594 63.81459961 52.62304688 64.75341797 C54 67 54 67 54 69 C43.2448342 70.29218618 43.2448342 70.29218618 38 69 C34.17648055 65.96418305 32.26566793 62.26849735 30 58 C28.67768456 55.97194009 27.34480706 53.95071611 26 51.9375 C23 47.27008929 23 47.27008929 23 45 C20.03 45 17.06 45 14 45 C14 52.92 14 60.84 14 69 C9.38 69 4.76 69 0 69 C0 46.23 0 23.46 0 0 Z " fill="#147EFF" transform="translate(943,48)"/>
<path d="M0 0 C6.27 0 12.54 0 19 0 C22.40294038 3.82830793 23.3600957 5.46268297 25 10 C26.04461029 11.96195001 27.11859958 13.90848994 28.21875 15.83984375 C29.31483712 17.87113646 30.40856756 19.9037025 31.5 21.9375 C32.59359375 23.9675321 33.68734296 25.99748045 34.78125 28.02734375 C35.30976562 29.01202637 35.83828125 29.99670898 36.3828125 31.01123047 C37.49055742 33.05848489 38.61101282 35.09889833 39.7421875 37.13330078 C40.56589844 38.61612549 40.56589844 38.61612549 41.40625 40.12890625 C41.90447266 41.01779541 42.40269531 41.90668457 42.91601562 42.82250977 C44 45 44 45 44 47 C44.66 47 45.32 47 46 47 C46 31.49 46 15.98 46 0 C50.62 0 55.24 0 60 0 C60 22.77 60 45.54 60 69 C53.73 69 47.46 69 41 69 C34.45283847 57.67518006 28.00784788 46.30015181 21.75 34.8125 C21.17741455 33.76771484 20.6048291 32.72292969 20.01489258 31.64648438 C19.48919678 30.67646484 18.96350098 29.70644531 18.421875 28.70703125 C17.95362305 27.8456958 17.48537109 26.98436035 17.00292969 26.09692383 C16 24 16 24 16 22 C15.34 22 14.68 22 14 22 C14 37.51 14 53.02 14 69 C9.38 69 4.76 69 0 69 C0 46.23 0 23.46 0 0 Z " fill="#147EFF" transform="translate(733,48)"/>
<path d="M0 0 C6.27 0 12.54 0 19 0 C24.88248405 15.87917038 30.67848752 31.78636025 36.3085022 47.75698853 C36.89483247 49.41993703 37.48221589 51.08251459 38.07064819 52.74472046 C38.89809683 55.08386141 39.72123251 57.42447212 40.54296875 59.765625 C40.79244263 60.46949844 41.0419165 61.17337189 41.2989502 61.89857483 C43 66.77037508 43 66.77037508 43 69 C38.05 69 33.1 69 28 69 C24 58.25 24 58.25 24 56 C14.43 56 4.86 56 -5 56 C-5.66 58.97 -6.32 61.94 -7 65 C-7.33 66.32 -7.66 67.64 -8 69 C-13.28 69 -18.56 69 -24 69 C-21.7071562 61.11239537 -19.09626126 53.37147237 -16.3671875 45.625 C-15.92530589 44.36618571 -15.4835873 43.10731419 -15.04202271 41.84838867 C-14.12399433 39.232573 -13.20444587 36.61729872 -12.28369141 34.00244141 C-11.10320276 30.6497593 -9.92594765 27.29595271 -8.74972343 23.94177246 C-7.62363803 20.73151317 -6.49536915 17.52202323 -5.3671875 14.3125 C-4.94428436 13.1073877 -4.52138123 11.90227539 -4.08566284 10.66064453 C-3.49967819 8.99751221 -3.49967819 8.99751221 -2.90185547 7.30078125 C-2.55782684 6.32278564 -2.21379822 5.34479004 -1.85934448 4.3371582 C-1 2 -1 2 0 0 Z " fill="#167FFF" transform="translate(569,48)"/>
<path d="M0 0 C6.27 0 12.54 0 19 0 C24.88248405 15.87917038 30.67848752 31.78636025 36.3085022 47.75698853 C36.89483247 49.41993703 37.48221589 51.08251459 38.07064819 52.74472046 C38.89809683 55.08386141 39.72123251 57.42447212 40.54296875 59.765625 C40.79244263 60.46949844 41.0419165 61.17337189 41.2989502 61.89857483 C43 66.77037508 43 66.77037508 43 69 C38.05 69 33.1 69 28 69 C24 58.25 24 58.25 24 56 C14.43 56 4.86 56 -5 56 C-5.66 58.97 -6.32 61.94 -7 65 C-7.33 66.32 -7.66 67.64 -8 69 C-13.28 69 -18.56 69 -24 69 C-21.7071562 61.11239537 -19.09626126 53.37147237 -16.3671875 45.625 C-15.92530589 44.36618571 -15.4835873 43.10731419 -15.04202271 41.84838867 C-14.12399433 39.232573 -13.20444587 36.61729872 -12.28369141 34.00244141 C-11.10320276 30.6497593 -9.92594765 27.29595271 -8.74972343 23.94177246 C-7.62363803 20.73151317 -6.49536915 17.52202323 -5.3671875 14.3125 C-4.94428436 13.1073877 -4.52138123 11.90227539 -4.08566284 10.66064453 C-3.49967819 8.99751221 -3.49967819 8.99751221 -2.90185547 7.30078125 C-2.55782684 6.32278564 -2.21379822 5.34479004 -1.85934448 4.3371582 C-1 2 -1 2 0 0 Z " fill="#167FFF" transform="translate(287,48)"/>
<path d="M0 0 C6.27 0 12.54 0 19 0 C19.66418945 1.87196045 19.66418945 1.87196045 20.34179688 3.78173828 C22.0258348 8.52732305 23.71100989 13.27250341 25.39648438 18.01757812 C26.11813634 20.04969896 26.83950232 22.08192138 27.56054688 24.11425781 C28.61247924 27.07906159 29.66537048 30.0435226 30.71875 33.0078125 C31.06768311 33.99033997 31.41661621 34.97286743 31.77612305 35.98516846 C33.59993372 41.10906344 35.44306684 46.22504331 37.31640625 51.33105469 C37.6880188 52.34489227 38.05963135 53.35872986 38.44250488 54.40328979 C39.15465262 56.34197407 39.86962707 58.27962293 40.58776855 60.21609497 C40.90491821 61.07919281 41.22206787 61.94229065 41.54882812 62.83154297 C41.82988403 63.59079071 42.11093994 64.35003845 42.4005127 65.1322937 C43 67 43 67 43 69 C38.05 69 33.1 69 28 69 C24 59.375 24 59.375 24 56 C14.43 56 4.86 56 -5 56 C-5.99 59.63 -6.98 63.26 -8 67 C-8.495 67.99 -8.495 67.99 -9 69 C-13.95 69 -18.9 69 -24 69 C-21.27130685 58.23682147 -17.59374262 47.8483906 -13.6640625 37.47265625 C-10.85449889 30.01375939 -8.26034455 22.47282917 -5.61035156 14.95605469 C-4.8741563 12.86874688 -4.13639024 10.78199949 -3.3984375 8.6953125 C-2.74367432 6.8393042 -2.74367432 6.8393042 -2.07568359 4.94580078 C-1 2 -1 2 0 0 Z " fill="#167FFF" transform="translate(893,48)"/>
<path d="M0 0 C4.31722968 1.66047295 7.44049504 4.09619332 11 7 C12.31138904 7.70885894 13.63777017 8.39456452 15 9 C14.67 10.65 14.34 12.3 14 14 C12.68 14.33 11.36 14.66 10 15 C8.10786631 12.61426621 6.97608217 10.92824652 6 8 C2.78997648 5.25973602 0.1369437 3.70791872 -4.0625 3.4375 C-8.64853959 4.09264851 -10.24793608 5.52246075 -13 9 C-15.04309254 12.06553193 -16.87383106 15.23211775 -18.6875 18.4375 C-19.17283203 19.27087891 -19.65816406 20.10425781 -20.15820312 20.96289062 C-22.04728207 24.25900767 -23.78272166 27.32491709 -24.94921875 30.94921875 C-26.95237102 36.76506232 -30.5986548 41.91608234 -33.83203125 47.125 C-38.00749351 54.14139421 -38.9590343 58.29201342 -37.3125 66.375 C-36.2222289 69.09819416 -36.2222289 69.09819416 -33.9375 70.375 C-24.05448475 72.4777692 -18.7173459 69.77379161 -10.375 64.625 C-4.2609316 60.92812143 1.07327252 57.87897435 8 56 C11.34476167 54.36761793 14.54190417 52.50919848 17.75 50.625 C18.59949219 50.14289062 19.44898437 49.66078125 20.32421875 49.1640625 C21.14019531 48.6896875 21.95617187 48.2153125 22.796875 47.7265625 C23.53260742 47.29939941 24.26833984 46.87223633 25.02636719 46.43212891 C27.24951141 44.81894682 28.57170048 43.3442862 30 41 C30.50882435 36.42058089 30.6786012 34.17450208 28.375 30.1875 C26.04803438 27.83604554 26.04803438 27.83604554 22.8125 26.4375 C20 25 20 25 19 22.9375 C19 21 19 21 21 19 C23.4375 19 23.4375 19 26 20 C27.5 22.6875 27.5 22.6875 29 26 C30.57922533 28.08438125 32.28915731 30.01902425 34 32 C35.6856694 35.3713388 35.52022321 38.25981671 34.4453125 41.85546875 C30.84190587 49.31541388 22.99060065 52.34283188 15.98144531 55.97070312 C10.15612724 58.87496026 10.15612724 58.87496026 5.12573242 62.921875 C1.18839755 66.77103021 -3.77271259 69.10354794 -8.5625 71.75 C-10.11420898 72.65298828 -10.11420898 72.65298828 -11.69726562 73.57421875 C-18.51238087 77.33810832 -24.17298779 79.31297283 -32 78 C-34.9375 76.375 -34.9375 76.375 -37 75 C-44.50333159 77.80612401 -49.92837881 86.11289787 -55 92 C-56.87098302 94.11324178 -58.74255855 96.22592913 -60.6171875 98.3359375 C-62.27382942 100.32952354 -63.00459828 101.40452212 -62.984375 104.0234375 C-62.53248474 108.55740311 -62.19098085 111.53154255 -59 115 C-59 115.66 -59 116.32 -59 117 C-55.84515044 117.91090727 -52.90576983 118.2251966 -49.625 118.3125 C-48.70976563 118.34988281 -47.79453125 118.38726562 -46.8515625 118.42578125 C-39.04117797 117.25957315 -33.48148433 109.68754525 -28.25390625 104.34375 C-27.31584765 103.39431918 -26.37710951 102.44555933 -25.43772888 101.49743652 C-21.4721478 97.49236039 -17.5195436 93.47456567 -13.57006836 89.45361328 C-11.14458614 86.98519431 -8.71165662 84.52430839 -6.27433586 82.06758118 C-4.90872189 80.6864054 -3.55185638 79.29659713 -2.19520569 77.90661621 C7.69032975 67.94253723 7.69032975 67.94253723 14.58984375 66.43359375 C20.90909651 66.44410831 25.26478494 67.70121029 30 72 C33.85959975 76.29571272 34.71653558 80.84278522 34.43359375 86.52734375 C32.51125296 97.48988175 20.5727652 105.82321655 12.59375 112.625 C11.34946955 113.69849686 10.16203041 114.83796959 9 116 C8.98568349 117.93845494 9.06108542 119.87811848 9.1875 121.8125 C9.30527274 127.59029185 9.30527274 127.59029185 6.625 131.1875 C2.10735525 134.30682614 -1.56344219 134.85445036 -7 134 C-10.28175318 131.47031526 -11.69243777 129.92268669 -13 126 C-13.37935127 121.90300628 -13.44928789 119.72206983 -11.25 116.1875 C-8.11476215 113.13935209 -6.38999365 112.0868746 -2 111.8125 C1 112 1 112 2.86450195 112.79980469 C5.22616396 113.26353676 5.22616396 113.26353676 7.45776367 111.14160156 C8.35213135 110.2337793 9.24649902 109.32595703 10.16796875 108.390625 C10.64825027 107.90801208 11.1285318 107.42539917 11.62336731 106.92816162 C12.63690873 105.90487491 13.64440656 104.87557207 14.64624023 103.84082031 C16.17993208 102.25781127 17.73141378 100.69417234 19.28710938 99.1328125 C25.94524466 92.77342757 25.94524466 92.77342757 28.25 84.125 C28.20103123 80.31942721 27.41208795 78.03744409 25 75 C21.36238517 72.57492345 19.15767804 72.24612709 14.84960938 72.41235352 C11.37203417 73.12949912 10.03620983 74.29421115 7.47265625 76.7265625 C6.60777588 77.54261963 5.74289551 78.35867676 4.85180664 79.19946289 C-1.065876 85.01075794 -6.90944011 90.89226898 -12.71728516 96.81323242 C-14.36973327 98.49566923 -16.0281801 100.17200061 -17.6875 101.84765625 C-18.19265137 102.36626724 -18.69780273 102.88487823 -19.21826172 103.41920471 C-20.4413853 104.65115699 -21.7164456 105.83114338 -23 107 C-23.66 107 -24.32 107 -25 107 C-25 107.66 -25 108.32 -25 109 C-25.66 109 -26.32 109 -27 109 C-27 109.66 -27 110.32 -27 111 C-28.5390625 112.55078125 -28.5390625 112.55078125 -30.625 114.3125 C-31.35203125 114.92996094 -32.0790625 115.54742187 -32.828125 116.18359375 C-33.54484375 116.78300781 -34.2615625 117.38242188 -35 118 C-35.59296875 118.50660156 -36.1859375 119.01320313 -36.796875 119.53515625 C-42.29176002 124.20036803 -45.64984575 124.34818435 -52.796875 124.27734375 C-58.43600319 123.78907777 -61.23829986 120.97483594 -64.8125 116.9375 C-67.59358372 113.20290187 -68.22336032 110.43033502 -68.4375 105.875 C-68.49808594 104.98554687 -68.55867188 104.09609375 -68.62109375 103.1796875 C-66.60483863 92.85747578 -56.69238905 85.54702121 -49.37304688 78.75390625 C-48.12297852 77.55314453 -48.12297852 77.55314453 -46.84765625 76.328125 C-46.08461182 75.6155957 -45.32156738 74.90306641 -44.53540039 74.16894531 C-42.70639903 72.07238379 -42.70639903 72.07238379 -43.19702148 69.29199219 C-43.79172094 67.06376505 -43.79172094 67.06376505 -45 66 C-46.48172669 55.9972649 -43.30780814 49.30468024 -38.25 40.875 C-37.61578125 39.75351562 -36.9815625 38.63203125 -36.328125 37.4765625 C-31.35447048 28.89700846 -31.35447048 28.89700846 -27 27 C-25.96350708 24.79840008 -25.96350708 24.79840008 -25 22 C-23.50941028 19.11290118 -21.88057901 16.30983704 -20.25 13.5 C-19.83234375 12.75363281 -19.4146875 12.00726563 -18.984375 11.23828125 C-14.32820437 3.21774343 -9.75495188 -1.61412873 0 0 Z " fill="#EEF5FF" transform="translate(108,13)"/>
<path d="M0 0 C15.51 0 31.02 0 47 0 C47 4.29 47 8.58 47 13 C36.44 13 25.88 13 15 13 C15 17.62 15 22.24 15 27 C24.9 27 34.8 27 45 27 C45 31.29 45 35.58 45 40 C35.1 40 25.2 40 15 40 C15 45.28 15 50.56 15 56 C25.89 56 36.78 56 48 56 C48 60.29 48 64.58 48 69 C32.16 69 16.32 69 0 69 C0 46.23 0 23.46 0 0 Z " fill="#157EFF" transform="translate(401,48)"/>
<path d="M0 0 C15.18 0 30.36 0 46 0 C46 4.29 46 8.58 46 13 C35.44 13 24.88 13 14 13 C14 17.62 14 22.24 14 27 C23.9 27 33.8 27 44 27 C44 31.29 44 35.58 44 40 C34.1 40 24.2 40 14 40 C14 45.28 14 50.56 14 56 C24.89 56 35.78 56 47 56 C47 60.29 47 64.58 47 69 C31.49 69 15.98 69 0 69 C0 46.23 0 23.46 0 0 Z " fill="#127DFF" transform="translate(674,48)"/>
<path d="M0 0 C5.72824121 3.70253705 9.49402713 8.64845586 12 15 C12 16.32 12 17.64 12 19 C9.58063683 19.16249454 7.17218141 19.28097817 4.75 19.375 C4.06808594 19.42527344 3.38617187 19.47554687 2.68359375 19.52734375 C0.671875 19.5859375 0.671875 19.5859375 -3 19 C-5.31640625 16.09375 -5.31640625 16.09375 -7 13 C-11.78570383 9.66113686 -16.34553512 9.2589301 -22 10 C-27.49480109 11.96983435 -30.47081469 14.96371149 -33.08203125 20.1484375 C-35.28881603 27.00355618 -35.2604 36.13343426 -33.01953125 43.0078125 C-30.35166685 47.98235351 -27.45748474 51.18083842 -22 53 C-16.33718888 53.56088796 -11.79939304 53.34841375 -7 50 C-6.44441406 48.9790625 -5.88882813 47.958125 -5.31640625 46.90625 C-3 44 -3 44 0.671875 43.4140625 C2.0324902 43.45369207 3.39249197 43.52491907 4.75 43.625 C5.44738281 43.65207031 6.14476562 43.67914063 6.86328125 43.70703125 C8.57685705 43.77745217 10.28883302 43.88507087 12 44 C10.70572011 51.3215637 7.9924845 57.07067653 2.0234375 61.6796875 C-6.48933629 67.23435457 -14.96305941 68.1697579 -25 67 C-33.84519166 64.85320903 -40.00683405 60.61608205 -45 53 C-50.20611202 42.78509216 -51.88034862 31.01827415 -49.24609375 19.78515625 C-46.02872288 10.5872607 -41.30075048 3.71171483 -32.8515625 -1.265625 C-22.51171795 -6.14355831 -9.87912114 -5.77631673 0 0 Z " fill="#167FFF" transform="translate(530,51)"/>
<path d="M0 0 C5.72824121 3.70253705 9.49402713 8.64845586 12 15 C12 16.32 12 17.64 12 19 C9.58063683 19.16249454 7.17218141 19.28097817 4.75 19.375 C4.06808594 19.42527344 3.38617188 19.47554687 2.68359375 19.52734375 C0.671875 19.5859375 0.671875 19.5859375 -3 19 C-5.31640625 16.09375 -5.31640625 16.09375 -7 13 C-11.78570383 9.66113686 -16.34553512 9.2589301 -22 10 C-27.49480109 11.96983435 -30.47081469 14.96371149 -33.08203125 20.1484375 C-35.28881603 27.00355618 -35.2604 36.13343426 -33.01953125 43.0078125 C-30.35166685 47.98235351 -27.45748474 51.18083842 -22 53 C-16.33718888 53.56088796 -11.79939304 53.34841375 -7 50 C-6.44441406 48.9790625 -5.88882813 47.958125 -5.31640625 46.90625 C-3 44 -3 44 0.671875 43.4140625 C2.0324902 43.45369207 3.39249197 43.52491907 4.75 43.625 C5.44738281 43.65207031 6.14476562 43.67914063 6.86328125 43.70703125 C8.57685705 43.77745217 10.28883302 43.88507087 12 44 C10.70572011 51.3215637 7.9924845 57.07067653 2.0234375 61.6796875 C-6.48933629 67.23435457 -14.96305941 68.1697579 -25 67 C-33.84519166 64.85320903 -40.00683405 60.61608205 -45 53 C-50.20611202 42.78509216 -51.88034862 31.01827415 -49.24609375 19.78515625 C-46.02872288 10.5872607 -41.30075048 3.71171483 -32.8515625 -1.265625 C-22.51171795 -6.14355831 -9.87912114 -5.77631673 0 0 Z " fill="#167FFF" transform="translate(248,51)"/>
<path d="M0 0 C4.62 0 9.24 0 14 0 C14 18.48 14 36.96 14 56 C24.56 56 35.12 56 46 56 C46 60.29 46 64.58 46 69 C30.82 69 15.64 69 0 69 C0 46.23 0 23.46 0 0 Z " fill="#127DFF" transform="translate(619,48)"/>
<path d="M0 0 C18.25382263 0 18.25382263 0 23 4 C29.09845668 11.66216352 29.00818342 20.60761857 28 30 C26.57155767 35.09299767 24.10626499 38.70544896 19.625 41.5625 C15 43 15 43 0 43 C0 28.81 0 14.62 0 0 Z " fill="#FCFDFF" transform="translate(822,61)"/>
<path d="M0 0 C2.866875 -0.0825 5.73375 -0.165 8.6875 -0.25 C9.58170654 -0.28641602 10.47591309 -0.32283203 11.3972168 -0.36035156 C15.3308212 -0.41505235 17.54402278 -0.2557921 21.04296875 1.70703125 C23.30101174 4.35268242 23.67797912 5.49915532 23.625 8.9375 C23.63789063 9.77152344 23.65078125 10.60554688 23.6640625 11.46484375 C22.66557623 15.27671191 21.18272578 16.69569019 18 19 C14.86070038 19.58788793 11.86675696 19.47434162 8.6875 19.3125 C4.3871875 19.1578125 4.3871875 19.1578125 0 19 C0 12.73 0 6.46 0 0 Z " fill="#F7FAFF" transform="translate(351,61)"/>
<path d="M0 0 C2.701875 -0.061875 5.40375 -0.12375 8.1875 -0.1875 C9.02949951 -0.21481201 9.87149902 -0.24212402 10.73901367 -0.27026367 C15.31952096 -0.32089807 18.28298447 0.01917007 22 3 C23.7196266 6.4392532 23.38219964 10.23164562 23 14 C21.27310955 17.28931514 20.5579199 17.8140267 17 19 C15.66474283 19.07973476 14.32587917 19.10771338 12.98828125 19.09765625 C11.96408081 19.09390991 11.96408081 19.09390991 10.91918945 19.09008789 C10.05898193 19.08098389 9.19877441 19.07187988 8.3125 19.0625 C4.1978125 19.0315625 4.1978125 19.0315625 0 19 C0 12.73 0 6.46 0 0 Z " fill="#F9FCFF" transform="translate(957,61)"/>
<path d="M0 0 C2 1 2 1 2.96142578 3.40844727 C3.2861084 4.45057373 3.61079102 5.4927002 3.9453125 6.56640625 C4.29980469 7.69111328 4.65429688 8.81582031 5.01953125 9.97460938 C5.38433594 11.15861328 5.74914062 12.34261719 6.125 13.5625 C6.68380859 15.34430664 6.68380859 15.34430664 7.25390625 17.16210938 C8.17607339 20.10595062 9.08890489 23.05271325 10 26 C4.06 26 -1.88 26 -8 26 C-7.30679758 21.14758305 -6.79668514 17.92313604 -5.125 13.5625 C-4.77179687 12.62921875 -4.41859375 11.6959375 -4.0546875 10.734375 C-3.70664062 9.83203125 -3.35859375 8.9296875 -3 8 C-2.4154597 6.43795113 -1.83197103 4.87550792 -1.25 3.3125 C-0.8375 2.219375 -0.425 1.12625 0 0 Z " fill="#F2F8FF" transform="translate(578,65)"/>
<path d="M0 0 C2 1 2 1 2.96142578 3.40844727 C3.2861084 4.45057373 3.61079102 5.4927002 3.9453125 6.56640625 C4.29980469 7.69111328 4.65429688 8.81582031 5.01953125 9.97460938 C5.38433594 11.15861328 5.74914062 12.34261719 6.125 13.5625 C6.68380859 15.34430664 6.68380859 15.34430664 7.25390625 17.16210938 C8.17607339 20.10595062 9.08890489 23.05271325 10 26 C4.06 26 -1.88 26 -8 26 C-7.30679758 21.14758305 -6.79668514 17.92313604 -5.125 13.5625 C-4.77179688 12.62921875 -4.41859375 11.6959375 -4.0546875 10.734375 C-3.70664062 9.83203125 -3.35859375 8.9296875 -3 8 C-2.4154597 6.43795113 -1.83197103 4.87550792 -1.25 3.3125 C-0.8375 2.219375 -0.425 1.12625 0 0 Z " fill="#F2F8FF" transform="translate(296,65)"/>
<path d="M0 0 C2.80683351 2.80683351 3.41436057 6.15750742 4.5 9.875 C6.005721 15.19076326 6.005721 15.19076326 8.15625 20.2578125 C9 22 9 22 9 26 C3.06 26 -2.88 26 -9 26 C-7.691195 21.8529664 -6.37815054 17.70736144 -5.0625 13.5625 C-4.68931641 12.37849609 -4.31613281 11.19449219 -3.93164062 9.97460938 C-3.57392578 8.84990234 -3.21621094 7.72519531 -2.84765625 6.56640625 C-2.51773682 5.52427979 -2.18781738 4.48215332 -1.84790039 3.40844727 C-1 1 -1 1 0 0 Z " fill="#F2F8FF" transform="translate(902,65)"/>
<path d="M0 0 C-0.33 0.99 -0.66 1.98 -1 3 C-4.0625 4.1875 -4.0625 4.1875 -7 5 C-6.67 6.65 -6.34 8.3 -6 10 C-2.52852158 10.74957157 -2.52852158 10.74957157 1 11 C1.66 8.69 2.32 6.38 3 4 C3.66 4.66 4.32 5.32 5 6 C4.90823739 9.48697916 4.19085759 10.79278319 1.8125 13.375 C-1 15 -1 15 -4.125 14.9375 C-8.49189189 13.51351351 -8.49189189 13.51351351 -10 11 C-10.50030235 7.06905293 -10.5996142 4.8994213 -8.375 1.5625 C-5.397402 -0.39644605 -3.49644963 -0.31785906 0 0 Z " fill="#2386FF" transform="translate(109,129)"/>
<path d="M0 0 C0.66 0.66 1.32 1.32 2 2 C1.90613916 5.56671177 1.19802025 6.79662785 -1.3125 9.375 C-4 11 -4 11 -6.3125 10.75 C-6.869375 10.5025 -7.42625 10.255 -8 10 C-7.01 9.67 -6.02 9.34 -5 9 C-4.67 8.34 -4.34 7.68 -4 7 C-3.34 7 -2.68 7 -2 7 C-1.34 4.69 -0.68 2.38 0 0 Z " fill="#308DFF" transform="translate(112,133)"/>
</svg>
