<?xml version="1.0" encoding="UTF-8"?>
<svg version="1.1" viewBox="0 0 2048 448" width="200" height="40" xmlns="http://www.w3.org/2000/svg">
<path transform="translate(0)" d="m0 0h2048v448h-2048z" fill="#FDFDFE"/>
<path transform="translate(209,20)" d="m0 0h35l21 3 21 5 21 8 16 8 12 7 17 12 12 11 8 7 9 10 12 16 11 18 10 21 7 21 5 24 2 22v19l-2 20-5 23-8 24-8 16-6 11-8 12-7 9-9 11-14 14-14 11-14 10-25 13-25 9-22 5-13 2h-42l-20-3-23-6-20-8-16-8-16-10-13-10-12-11-12-12-13-17-9-14-12-23-9-27-5-25-1-13v-27l2-20 4-19 9-27 11-22 13-19 13-16 17-17 17-13 20-12 19-9 24-8 26-5z" fill="#0F7CFE"/>
<path transform="translate(1741,146)" d="m0 0 3 1 14 26 10 18 16 29 13 24 4 7v2h2v-105l1-1h33v156h-44l-10-18-32-58-13-24-4-6-1 106h-33v-156z" fill="#0F7CFE"/>
<path transform="translate(251,55)" d="m0 0h14l11 4 10 9 8 5 8 4 2 2v7l-5 5-6 1-5-5-6-12-9-8-11-4h-8l-11 4-7 8-14 24-15 26-1 9-15 26-14 24-4 8-1 4v14l6 12 7 6 9 4 5 1h7l11-4 19-10 21-12 16-9h7l24-13 24-14 9-6 6-8 1-4v-11l-3-8-9-10-14-7-3-3v-6l6-6h6l5 5 4 9 7 8 6 8 3 8v14l-4 10-7 8-10 7-22 12-23 13-3 1-2 6-29 16-23 13-13 6-7 2h-13l-13-4-9-5-4 2-14 14-7 8-25 25-9 11-4 13v8l3 10 6 9 7 6 9 4 4 1h10l10-3 10-7 24-24 8-7 41-41 8-7 31-31 10-6 9-3h16l10 3 10 6 7 7 6 12 2 9v8l-3 12-6 10-55 55h-2l4 11v10l-4 10-5 6-9 5-4 1h-11l-10-4-7-6-4-9-1-4v-9l4-10 7-7 8-4 3-1h10l9 3 4-1 50-50 6-7 4-13-2-12-5-9-7-6-10-4h-13l-10 4-10 9-21 21-8 7-41 41-8 7-29 29-11 7-9 3-6 1h-10l-11-3-12-6-9-9-6-10-3-10v-16l3-10 7-11 15-16 24-24 7-8 9-9-6-13-2-8v-14l4-12 14-25 13-22 7-11 6-4 15-26 14-24 9-10 9-5z" fill="#FDFDFE"/>
<path transform="translate(882,146)" d="m0 0 4 1 11 30 19 54 15 42 9 25 1 5h-34l-5-12-5-14v-2l-63 1-10 26-1 1h-34l3-10 20-57 15-42 17-47z" fill="#0F7CFE"/>
<path transform="translate(1214,147)" d="m0 0h33v64l62-1v-26l1-37h33v156h-33l-1-2v-61l-62-1v64h-33z" fill="#0F7CFE"/>
<path transform="translate(512,147)" d="m0 0h33l1 63h61v-35l1-28h33v156h-33l-1-64h-62v64h-33z" fill="#0F7CFE"/>
<path transform="translate(1466,145)" d="m0 0h26l15 4 12 6 9 8 6 10 4 10 1 7h-33l-6-9-5-4-10-3h-12l-9 3-5 4-2 4v10l3 5 10 5 23 6 15 4 13 5 9 6 6 7 5 10 1 4v18l-4 12-8 11-9 7-10 5-15 4-5 1h-23l-14-3-12-5-9-6-8-8-7-14-3-11v-2h34l6 12 8 5 12 3h9l10-2 8-4 4-6 1-9-3-6-5-4-11-4-31-7-16-6-9-7-6-8-4-10-1-4v-16l4-13 7-9 8-7 11-5z" fill="#0F7CFE"/>
<path transform="translate(672,147)" d="m0 0h106v28h-73l1 35 67 1 1 27-1 1h-68l1 35 74 1v28h-108z" fill="#0F7CFE"/>
<path transform="translate(1922,145)" d="m0 0h26l15 4 14 7 10 9 6 7 8 16 2 8h-34l-7-10-4-5-12-6-5-1h-12l-10 3-9 6-6 7-5 10-3 15v19l3 15 7 14 9 8 11 4 5 1h8l12-3 8-6 6-7 3-6h35l-3 10-6 12-7 9-10 9-14 7-17 4h-22l-17-4-16-8-12-11-9-14-6-16-3-20v-11l2-18 4-14 8-16 9-10 8-7 14-7z" fill="#0F7CFE"/>
<path transform="translate(1577,146)" d="m0 0 5 1 25 50 8 15v2l3-3 17-33 12-23 5-8h36l-8 15-15 29-12 22-13 25-6 11-1 54h-33l-1-54-14-27-12-22-14-27-12-22-2-4z" fill="#0F7CFE"/>
<path transform="translate(1069,147)" d="m0 0h126v28h-47l1 105v23h-34v-128h-46z" fill="#0F7CFE"/>
<path transform="translate(956,147)" d="m0 0h33v128h71v28h-104z" fill="#0F7CFE"/>
<path transform="translate(865,185)" d="m0 0 2 2 16 50 3 9-41 1 1-7 17-52z" fill="#FDFDFE"/>
<path transform="translate(256,341)" d="m0 0h13l2 2-5 5-10 2-3 3-1 9 3 5 3 2h9l5-4 2-9 6-5 2 6-1 8-4 7-8 5-3 1h-7l-8-4-6-7-1-3v-10l4-7 6-5z" fill="#0F7CFE"/>
</svg>
